<?xml version="1.0" encoding="UTF-8" standalone="no"?>
<!DOCTYPE svg PUBLIC "-//W3C//DTD SVG 1.1//EN" "http://www.w3.org/Graphics/SVG/1.1/DTD/svg11.dtd">
<svg xmlns="http://www.w3.org/2000/svg" version="1.1" viewBox="0.00 0.00 2640.00 793.00">
<path fill="#ffffff" d="
  M 404.81 0.00
  L 408.00 0.00
  Q 424.08 0.94 428.50 1.28
  Q 494.72 6.39 555.79 33.20
  Q 653.63 76.16 717.94 163.74
  Q 718.28 164.20 718.07 164.73
  Q 717.51 166.20 716.39 167.43
  Q 698.10 187.36 681.82 205.26
  C 679.76 207.52 676.57 208.53 673.55 208.54
  Q 606.40 208.64 543.34 208.81
  Q 539.44 208.83 536.99 206.04
  Q 477.10 137.90 414.81 67.29
  C 410.22 62.08 409.19 57.70 408.54 50.14
  Q 406.64 28.28 404.46 5.26
  Q 404.23 2.88 404.81 0.00
  Z
  M 554.48 188.06
  C 551.54 188.03 548.89 187.00 546.90 184.87
  Q 485.19 118.80 428.49 57.26
  Q 425.30 53.80 425.11 48.81
  Q 424.37 29.83 422.61 11.67
  C 422.35 8.98 420.67 7.34 417.92 7.67
  Q 413.77 8.17 413.78 13.08
  Q 413.82 31.70 413.64 49.76
  C 413.60 54.17 414.75 58.26 417.68 61.32
  Q 477.53 123.90 540.32 189.89
  C 543.84 193.58 546.42 195.65 551.24 195.59
  C 568.78 195.40 586.47 195.04 603.99 196.15
  C 619.41 197.13 634.38 197.20 649.44 197.02
  C 657.12 196.93 664.68 197.61 672.41 197.16
  Q 676.98 196.89 680.03 193.41
  Q 690.98 180.94 699.10 170.25
  A 2.57 2.55 -34.5 0 0 699.53 167.98
  Q 699.14 166.61 698.26 166.01
  Q 695.79 164.33 693.66 166.44
  Q 685.17 174.88 677.25 184.60
  C 675.17 187.15 672.27 188.85 668.98 188.84
  Q 640.05 188.76 609.74 188.42
  C 591.33 188.21 572.99 188.24 554.48 188.06
  Z
  M 527.62 31.09
  C 503.07 21.32 478.83 14.73 453.21 11.38
  Q 449.05 10.84 445.21 10.95
  A 2.52 2.51 -80.6 0 0 442.91 12.60
  Q 442.07 14.87 444.52 15.36
  Q 451.63 16.76 458.18 17.84
  C 478.89 21.25 499.76 27.43 518.54 34.57
  Q 576.96 56.77 625.76 90.25
  Q 658.63 112.80 684.18 142.41
  Q 690.29 149.50 695.53 157.04
  Q 696.02 157.75 696.72 157.24
  L 697.72 156.51
  Q 698.39 156.03 698.06 155.26
  Q 695.52 149.49 692.31 145.46
  C 684.26 135.37 676.08 125.87 666.37 116.99
  C 625.67 79.81 579.19 51.61 527.62 31.09
  Z"
/>
<path fill="#ffffff" d="
  M 717.18 219.87
  A 0.95 0.94 -65.5 0 1 717.57 220.93
  C 716.91 223.19 714.71 223.96 712.63 224.54
  Q 711.04 224.99 709.47 225.53
  Q 568.56 273.69 427.00 321.88
  A 1.03 1.03 0.0 0 1 425.82 321.49
  L 241.74 53.22
  Q 241.03 52.19 242.28 52.32
  L 244.15 52.51
  A 2.81 2.79 -17.4 0 1 246.00 53.47
  Q 330.23 151.82 434.76 276.01
  C 437.91 279.75 442.14 280.69 446.81 279.61
  Q 580.17 248.88 711.80 218.83
  C 713.70 218.40 715.47 218.75 717.18 219.87
  Z"
/>
<path fill="#ffffff" d="
  M 296.53 382.33
  C 211.15 432.56 125.65 482.60 40.15 532.64
  C 37.68 534.09 34.56 536.21 32.53 534.17
  A 1.97 1.96 42.8 0 1 32.42 531.52
  Q 34.86 528.64 37.71 526.55
  Q 136.40 453.76 252.09 369.33
  Q 257.25 365.57 258.44 359.89
  Q 259.12 356.61 258.04 349.90
  Q 235.95 212.73 214.43 71.55
  Q 213.94 68.36 214.24 64.89
  A 0.42 0.42 0.0 0 1 214.86 64.56
  C 218.19 66.40 218.42 70.47 219.31 73.83
  Q 259.14 225.18 298.98 376.45
  Q 300.00 380.29 296.53 382.33
  Z"
/>
<path fill="#ffffff" d="
  M 376.78 441.02
  Q 373.92 442.24 371.57 443.39
  C 299.50 478.38 229.11 508.96 154.00 534.83
  Q 110.89 549.68 73.14 558.00
  Q 69.47 558.81 64.69 558.90
  Q 64.19 558.91 64.04 558.42
  Q 63.27 555.86 64.94 554.46
  Q 83.29 539.09 107.89 520.92
  Q 137.78 498.84 182.02 471.49
  C 234.07 439.29 291.52 409.47 347.61 380.24
  Q 348.07 380.00 347.85 379.53
  Q 333.85 348.71 320.40 318.07
  Q 267.19 196.80 228.45 67.59
  Q 228.29 67.03 228.87 67.08
  C 231.16 67.29 232.67 68.42 234.07 70.38
  C 246.52 87.89 259.26 105.28 271.40 123.02
  C 321.00 195.56 365.97 272.46 407.02 350.73
  A 0.85 0.85 0.0 0 0 408.12 351.11
  Q 431.36 340.48 454.00 330.43
  Q 542.65 291.08 631.04 260.31
  C 658.63 250.71 686.59 241.97 713.84 233.38
  Q 716.01 232.70 718.86 232.25
  Q 719.53 232.15 720.00 232.45
  Q 720.54 232.80 720.52 233.47
  A 1.14 1.13 -19.7 0 1 720.14 234.27
  C 717.68 236.48 715.34 238.61 712.69 240.57
  Q 680.76 264.11 654.43 281.66
  Q 551.32 350.41 437.93 409.65
  A 0.86 0.85 -26.9 0 0 437.55 410.78
  Q 447.39 431.15 456.64 450.80
  C 485.60 512.36 511.48 574.51 533.49 639.53
  Q 546.53 678.03 554.75 714.89
  C 555.32 717.47 555.37 720.10 555.43 722.73
  Q 555.45 723.31 554.87 723.41
  Q 552.17 723.87 550.50 721.80
  C 538.88 707.41 527.75 693.68 517.21 679.01
  C 465.74 607.35 423.21 530.26 383.11 451.67
  Q 380.47 446.49 377.50 441.26
  Q 377.25 440.82 376.78 441.02
  Z
  M 391.87 402.89
  Q 450.37 517.70 508.93 632.73
  C 510.88 636.57 516.61 634.70 514.45 629.99
  Q 507.63 615.15 500.98 601.48
  Q 453.05 503.08 404.75 403.43
  Q 403.65 401.16 402.53 398.51
  Q 401.92 397.06 403.32 396.37
  Q 503.78 346.92 595.00 301.79
  Q 625.18 286.86 660.00 268.28
  Q 662.46 266.97 664.38 264.15
  Q 664.61 263.80 664.23 263.63
  Q 661.74 262.46 659.00 263.49
  C 653.23 265.67 647.55 267.97 641.95 270.60
  Q 519.32 327.96 396.68 385.43
  Q 396.13 385.68 395.86 385.13
  C 388.98 370.73 382.00 356.31 374.62 342.12
  Q 320.77 238.40 267.14 134.56
  Q 266.34 133.01 264.25 132.54
  Q 263.71 132.41 263.53 132.94
  Q 262.79 135.20 263.53 136.75
  Q 325.39 265.76 385.01 389.50
  Q 385.60 390.74 384.38 391.38
  Q 378.31 394.56 371.11 398.05
  Q 259.37 452.20 141.68 509.33
  Q 136.75 511.72 132.84 514.31
  Q 129.30 516.65 130.57 520.24
  C 132.67 526.17 139.70 522.66 143.22 520.97
  Q 263.15 463.58 379.91 407.55
  Q 385.49 404.87 390.97 402.55
  Q 391.58 402.30 391.87 402.89
  Z"
/>
<path fill="#ffffff" d="
  M 29.30 247.89
  Q 58.38 175.30 114.83 117.81
  Q 115.27 117.36 115.79 117.71
  Q 141.35 134.76 165.21 150.29
  Q 169.82 153.29 170.95 159.72
  Q 182.28 223.76 193.46 287.57
  Q 194.56 293.88 190.13 299.38
  Q 132.77 370.77 75.43 442.17
  C 72.99 445.21 69.71 446.73 65.62 447.95
  Q 37.01 456.49 7.98 464.69
  Q 6.37 465.14 6.09 463.50
  Q -12.51 352.27 29.30 247.89
  Z
  M 29.58 446.70
  Q 45.84 442.69 62.85 438.12
  Q 66.12 437.24 67.99 435.27
  Q 78.84 423.86 90.04 409.75
  Q 132.08 356.78 176.91 300.72
  Q 178.87 298.27 180.31 295.44
  Q 181.36 293.39 180.95 290.91
  Q 180.51 288.25 180.02 285.50
  Q 171.36 236.88 161.82 183.74
  Q 160.30 175.28 159.38 167.80
  C 158.92 164.03 157.71 160.20 154.66 158.15
  Q 138.49 147.25 123.02 136.82
  Q 120.55 135.16 117.94 136.55
  Q 117.47 136.79 117.31 137.32
  Q 116.24 140.75 118.64 142.70
  Q 131.43 153.10 144.01 162.70
  C 148.36 166.01 150.82 168.99 151.64 174.27
  Q 160.00 228.32 169.43 285.47
  C 170.14 289.74 169.04 294.30 166.31 297.70
  Q 124.26 350.21 81.86 403.14
  C 76.36 410.01 71.67 417.06 66.70 424.13
  Q 62.47 430.15 55.67 431.80
  Q 38.51 435.98 21.39 441.11
  C 19.23 441.75 12.60 444.30 16.72 447.67
  C 19.65 450.06 26.18 447.54 29.58 446.70
  Z
  M 22.68 353.86
  C 30.61 304.91 44.84 256.64 65.28 211.42
  Q 77.86 183.58 95.09 160.65
  Q 100.55 153.39 105.98 147.85
  C 107.70 146.10 108.09 143.95 106.07 142.23
  A 1.24 1.23 55.9 0 0 104.86 141.99
  Q 102.42 142.80 100.87 144.81
  C 93.03 155.06 84.86 165.86 78.14 177.08
  C 48.60 226.43 29.53 282.08 18.41 339.12
  Q 9.08 386.98 10.40 434.05
  Q 10.47 436.72 13.14 436.58
  L 13.68 436.55
  Q 15.92 436.43 16.00 434.19
  Q 16.98 408.02 18.00 393.58
  Q 19.36 374.38 22.68 353.86
  Z"
/>
<path fill="#ffffff" d="
  M 1541.49 234.59
  Q 1540.75 234.59 1540.36 233.96
  C 1529.42 215.94 1503.83 214.17 1485.09 214.10
  C 1471.16 214.04 1429.01 214.49 1427.04 233.78
  C 1426.31 240.99 1440.29 243.06 1445.26 243.70
  Q 1455.93 245.07 1466.04 245.61
  C 1496.77 247.25 1527.94 248.33 1557.31 253.15
  C 1583.96 257.52 1623.90 268.95 1626.61 301.55
  Q 1628.12 319.69 1620.45 334.92
  C 1606.27 363.07 1569.20 373.30 1540.50 377.36
  C 1512.93 381.27 1485.05 381.59 1457.32 380.42
  Q 1440.28 379.71 1425.24 377.65
  C 1403.51 374.68 1381.57 368.66 1365.23 354.98
  C 1350.78 342.87 1343.06 325.59 1340.99 306.81
  Q 1340.95 306.48 1341.28 306.48
  L 1426.48 306.48
  Q 1427.01 306.48 1427.29 306.93
  C 1436.09 321.40 1454.49 325.49 1470.32 326.56
  C 1485.22 327.58 1536.47 328.55 1540.60 308.64
  Q 1541.67 303.48 1536.39 301.07
  Q 1531.35 298.77 1525.33 297.80
  Q 1514.76 296.11 1504.16 295.52
  C 1476.37 293.99 1448.81 293.10 1421.04 289.45
  C 1391.89 285.63 1343.29 275.21 1341.12 238.66
  C 1337.77 182.10 1395.33 166.43 1439.77 162.03
  Q 1475.27 158.51 1518.40 161.03
  C 1539.61 162.27 1561.29 165.23 1580.34 172.85
  Q 1593.28 178.02 1603.08 186.40
  C 1617.30 198.55 1624.50 215.35 1626.81 233.99
  Q 1626.89 234.61 1626.26 234.61
  L 1541.49 234.59
  Z"
/>
<path fill="#ffffff" d="
  M 899.41 375.55
  L 899.40 165.43
  A 0.43 0.43 0.0 0 1 899.83 165.00
  L 981.17 165.00
  A 0.43 0.43 0.0 0 1 981.60 165.43
  L 981.61 375.55
  A 0.43 0.43 0.0 0 1 981.18 375.98
  L 899.84 375.98
  A 0.43 0.43 0.0 0 1 899.41 375.55
  Z"
/>
<path fill="#ffffff" d="
  M 1230.77 276.17
  A 0.21 0.21 0.0 0 0 1230.87 275.99
  L 1230.87 165.37
  Q 1230.87 165.00 1231.25 165.00
  L 1312.75 165.00
  Q 1313.25 165.00 1313.25 165.50
  L 1313.25 375.74
  A 0.24 0.24 0.0 0 1 1313.01 375.98
  L 1221.44 375.99
  Q 1220.71 375.99 1220.23 375.44
  L 1108.16 247.80
  Q 1107.63 247.19 1107.63 248.00
  L 1107.63 375.63
  A 0.35 0.35 0.0 0 1 1107.28 375.98
  L 1025.74 375.98
  A 0.25 0.24 0.0 0 1 1025.49 375.74
  L 1025.49 165.50
  Q 1025.49 165.00 1026.00 165.00
  L 1138.01 165.00
  A 1.10 1.10 0.0 0 1 1138.86 165.40
  Q 1184.63 220.69 1230.46 276.14
  Q 1230.58 276.28 1230.77 276.17
  Z"
/>
<rect fill="#ffffff" x="1953.73" y="165.00" width="82.06" height="210.98" rx="0.28"/>
<path fill="#ffffff" d="
  M 1731.12 325.01
  L 1731.13 375.55
  A 0.44 0.43 90.0 0 1 1730.70 375.99
  L 1649.42 375.98
  A 0.43 0.43 0.0 0 1 1648.99 375.55
  L 1648.99 166.03
  Q 1648.99 165.55 1649.47 165.54
  Q 1657.12 165.45 1664.99 165.45
  Q 1756.14 165.48 1847.33 165.40
  Q 1859.99 165.39 1867.08 166.75
  C 1904.12 173.88 1931.50 206.28 1931.62 244.44
  Q 1931.73 277.58 1908.34 301.22
  Q 1891.38 318.37 1867.66 323.17
  Q 1860.52 324.61 1849.55 324.59
  Q 1788.48 324.46 1731.60 324.54
  A 0.48 0.47 -0.0 0 0 1731.12 325.01
  Z
  M 1731.12 227.48
  L 1731.12 262.38
  A 0.49 0.49 0.0 0 0 1731.61 262.87
  L 1831.14 262.87
  A 18.12 17.89 0.0 0 0 1849.26 244.98
  L 1849.26 244.88
  A 18.12 17.89 0.0 0 0 1831.14 226.99
  L 1731.61 226.99
  A 0.49 0.49 0.0 0 0 1731.12 227.48
  Z"
/>
<path fill="#ffffff" d="
  M 2161.48 325.27
  L 2161.49 375.50
  A 0.49 0.48 -0.0 0 1 2161.00 375.98
  L 2079.89 375.98
  Q 2079.29 375.98 2079.29 375.39
  L 2079.29 165.81
  A 0.43 0.43 0.0 0 1 2079.72 165.38
  Q 2178.80 165.52 2280.02 165.41
  Q 2290.65 165.39 2297.83 166.81
  Q 2321.60 171.48 2338.90 189.02
  Q 2364.19 214.66 2361.69 251.38
  C 2359.75 279.85 2341.99 304.32 2316.55 316.70
  Q 2316.07 316.94 2316.40 317.35
  L 2361.66 375.58
  A 0.25 0.25 0.0 0 1 2361.46 375.98
  L 2274.89 375.99
  A 1.00 1.00 0.0 0 1 2274.09 375.59
  L 2235.01 324.91
  A 1.03 1.01 70.4 0 0 2234.21 324.52
  L 2162.23 324.52
  Q 2161.48 324.52 2161.48 325.27
  Z
  M 2161.47 227.37
  L 2161.47 262.47
  A 0.39 0.39 0.0 0 0 2161.86 262.86
  L 2261.49 262.86
  A 18.06 17.83 -0.0 0 0 2279.55 245.03
  L 2279.55 244.81
  A 18.06 17.83 0.0 0 0 2261.49 226.98
  L 2161.86 226.98
  A 0.39 0.39 0.0 0 0 2161.47 227.37
  Z"
/>
<path fill="#ffffff" d="
  M 2470.19 321.87
  L 2633.41 321.87
  A 0.42 0.42 0.0 0 1 2633.83 322.29
  L 2633.86 375.72
  A 0.31 0.31 0.0 0 1 2633.55 376.03
  L 2387.91 376.03
  Q 2387.30 376.03 2387.30 375.41
  L 2387.30 166.08
  Q 2387.30 165.64 2387.75 165.62
  Q 2393.74 165.38 2395.75 165.38
  Q 2513.97 165.51 2633.25 165.40
  A 0.58 0.57 90.0 0 1 2633.82 165.98
  L 2633.82 218.78
  Q 2633.82 219.39 2633.22 219.39
  L 2470.05 219.40
  Q 2469.50 219.40 2469.50 219.95
  L 2469.50 245.73
  A 0.73 0.73 0.0 0 0 2470.23 246.46
  L 2633.27 246.45
  Q 2633.84 246.45 2633.84 247.02
  L 2633.84 294.58
  A 0.55 0.54 90.0 0 1 2633.30 295.13
  L 2470.06 295.13
  Q 2469.50 295.13 2469.50 295.69
  L 2469.50 321.19
  Q 2469.50 321.87 2470.19 321.87
  Z"
/>
<path fill="#ffffff" d="
  M 523.24 431.18
  C 520.56 433.35 519.35 436.38 520.08 439.99
  Q 547.06 572.50 574.01 705.01
  Q 574.74 708.61 574.45 711.91
  A 2.49 2.48 0.1 0 1 572.17 714.17
  C 569.41 714.39 568.18 709.32 567.57 707.40
  Q 523.43 567.42 478.45 423.77
  Q 477.69 421.34 479.32 419.27
  Q 479.82 418.65 483.34 416.36
  Q 612.14 332.63 740.16 249.15
  Q 744.66 246.22 748.77 243.84
  Q 750.26 242.98 752.23 243.45
  A 1.18 1.18 0.0 0 1 752.77 245.45
  Q 750.70 247.38 748.97 248.78
  Q 636.50 339.85 523.24 431.18
  Z"
/>
<path fill="#ffffff" d="
  M 764.13 544.63
  Q 730.78 627.41 663.42 689.31
  Q 662.99 689.71 662.47 689.45
  Q 660.51 688.51 658.69 687.16
  Q 637.70 671.47 615.56 654.74
  Q 611.88 651.97 611.26 646.89
  Q 603.69 584.56 595.91 522.90
  Q 594.98 515.58 599.78 510.22
  Q 662.69 439.85 721.32 373.74
  Q 724.97 369.62 730.74 368.80
  Q 761.62 364.39 789.90 360.37
  A 1.59 1.59 0.0 0 1 791.70 361.81
  Q 799.83 455.99 764.13 544.63
  Z
  M 631.63 637.13
  Q 626.98 594.23 622.63 553.71
  C 621.98 547.56 621.32 536.19 619.74 528.18
  C 618.37 521.20 618.36 516.02 623.01 510.78
  Q 675.85 451.29 730.23 389.08
  C 732.59 386.38 736.31 384.03 739.77 383.33
  Q 757.62 379.75 776.04 376.24
  Q 778.49 375.78 780.81 375.42
  Q 783.63 374.99 783.07 372.20
  L 783.01 371.89
  Q 782.42 368.89 779.43 369.52
  Q 763.55 372.88 752.29 374.75
  C 748.51 375.38 744.58 375.22 740.77 376.08
  Q 729.03 378.71 719.99 389.24
  Q 674.83 441.82 619.33 503.32
  C 613.05 510.29 609.16 516.09 610.33 525.04
  Q 617.85 582.29 624.16 636.26
  C 624.81 641.84 622.66 647.90 628.08 651.84
  Q 640.24 660.70 656.53 672.25
  C 661.07 675.47 667.04 670.60 662.11 666.29
  Q 650.71 656.29 638.49 647.86
  C 634.92 645.40 632.07 641.25 631.63 637.13
  Z
  M 781.31 442.31
  C 783.47 430.78 786.00 418.09 786.41 406.97
  Q 786.78 397.11 786.39 387.04
  Q 786.25 383.52 783.24 381.66
  A 0.96 0.96 0.0 0 0 782.20 381.69
  Q 778.97 383.90 778.58 387.29
  Q 776.23 407.33 773.50 428.50
  Q 765.20 492.78 740.93 551.83
  C 731.93 573.72 722.19 594.95 710.06 614.93
  Q 702.56 627.28 695.50 636.00
  Q 688.28 644.93 677.95 655.53
  C 675.37 658.18 672.55 660.10 669.45 661.96
  Q 666.64 663.63 668.19 665.80
  A 1.71 1.70 -33.3 0 0 670.47 666.27
  Q 674.03 664.09 677.26 661.52
  C 694.82 647.54 708.15 629.75 719.49 610.16
  Q 764.52 532.33 781.31 442.31
  Z"
/>
<path fill="#ffffff" d="
  M 1986.05 600.75
  A 0.20 0.20 0.0 0 0 1985.71 600.63
  C 1958.07 626.85 1917.50 634.02 1880.76 632.97
  C 1834.35 631.64 1774.41 623.38 1751.54 575.96
  C 1741.64 555.43 1741.97 534.07 1742.29 511.92
  C 1742.66 487.05 1750.13 463.91 1767.54 446.81
  C 1783.08 431.54 1804.70 422.52 1826.13 417.99
  C 1855.87 411.70 1886.94 410.82 1916.72 413.19
  C 1969.17 417.37 2022.94 436.67 2031.54 496.38
  Q 2031.63 497.00 2031.00 497.00
  L 1944.02 497.00
  Q 1943.44 497.00 1943.09 496.54
  C 1934.67 485.64 1921.52 481.82 1908.09 480.16
  Q 1881.15 476.82 1857.09 481.88
  C 1848.12 483.77 1838.60 488.09 1832.75 495.29
  C 1825.09 504.73 1824.89 516.56 1825.38 528.56
  C 1826.42 554.52 1846.68 562.91 1869.34 565.05
  Q 1892.96 567.29 1918.81 564.71
  C 1932.28 563.37 1944.66 559.24 1953.47 548.88
  A 0.29 0.29 0.0 0 0 1953.25 548.40
  L 1887.41 548.40
  A 0.37 0.37 0.0 0 1 1887.04 548.03
  L 1887.03 512.92
  Q 1887.03 512.37 1887.58 512.37
  L 2030.73 512.37
  Q 2031.59 512.37 2031.59 513.23
  L 2031.53 632.50
  Q 2031.53 633.03 2031.00 633.03
  L 1990.69 633.03
  Q 1990.08 633.03 1990.01 632.43
  L 1986.05 600.75
  Z"
/>
<path fill="#ffffff" d="
  M 1145.70 561.60
  L 1145.65 627.63
  A 0.37 0.37 0.0 0 1 1145.28 628.00
  L 896.88 628.00
  A 0.37 0.37 0.0 0 1 896.51 627.63
  L 896.51 417.38
  A 0.37 0.37 0.0 0 1 896.88 417.01
  L 979.26 417.01
  A 0.37 0.37 0.0 0 1 979.63 417.38
  L 979.63 560.86
  A 0.37 0.37 0.0 0 0 980.00 561.23
  L 1145.33 561.23
  A 0.37 0.37 0.0 0 1 1145.70 561.60
  Z"
/>
<path fill="#ffffff" d="
  M 2187.70 565.35
  C 2201.59 566.68 2215.69 566.47 2229.15 564.43
  C 2250.44 561.22 2266.99 550.93 2266.99 526.89
  Q 2267.00 472.50 2266.99 417.55
  Q 2266.99 417.01 2267.53 417.01
  L 2349.55 417.01
  Q 2350.19 417.01 2350.19 417.64
  Q 2350.25 475.75 2350.15 533.97
  Q 2350.13 546.12 2346.98 558.97
  C 2335.45 606.01 2291.86 624.61 2248.13 630.26
  Q 2205.63 635.74 2162.77 630.42
  C 2120.05 625.13 2076.42 607.63 2063.49 562.16
  Q 2059.66 548.68 2059.55 535.19
  Q 2059.17 488.00 2059.49 417.53
  Q 2059.49 417.01 2060.02 417.01
  L 2141.94 417.01
  Q 2142.47 417.01 2142.47 417.54
  Q 2142.65 468.39 2142.40 517.57
  Q 2142.33 531.35 2143.73 537.14
  C 2148.68 557.61 2168.52 563.53 2187.70 565.35
  Z"
/>
<path fill="#ffffff" d="
  M 1539.06 592.13
  L 1522.44 627.82
  A 0.31 0.31 0.0 0 1 1522.16 628.00
  L 1429.36 628.00
  A 0.31 0.31 0.0 0 1 1429.09 627.54
  L 1542.91 417.63
  A 0.31 0.31 0.0 0 1 1543.18 417.47
  L 1641.57 417.43
  A 0.31 0.31 0.0 0 1 1641.84 417.59
  L 1755.67 627.54
  A 0.31 0.31 0.0 0 1 1755.40 628.00
  L 1662.60 628.00
  A 0.31 0.31 0.0 0 1 1662.32 627.82
  L 1645.71 592.13
  A 0.31 0.31 0.0 0 0 1645.43 591.95
  L 1539.34 591.95
  A 0.31 0.31 0.0 0 0 1539.06 592.13
  Z
  M 1563.47 540.06
  A 0.35 0.35 0.0 0 0 1563.79 540.56
  L 1621.03 540.56
  A 0.35 0.35 0.0 0 0 1621.35 540.06
  L 1592.73 479.14
  A 0.35 0.35 0.0 0 0 1592.09 479.14
  L 1563.47 540.06
  Z"
/>
<path fill="#ffffff" d="
  M 2470.93 573.97
  L 2636.00 573.96
  A 0.50 0.50 0.0 0 1 2636.50 574.46
  L 2636.49 627.55
  A 0.50 0.50 0.0 0 1 2635.99 628.05
  L 2387.78 628.05
  A 0.50 0.50 0.0 0 1 2387.28 627.55
  L 2387.25 417.96
  A 0.50 0.50 0.0 0 1 2387.75 417.46
  L 2636.01 417.47
  A 0.50 0.50 0.0 0 1 2636.51 417.97
  L 2636.47 470.94
  A 0.50 0.50 0.0 0 1 2635.97 471.44
  L 2470.91 471.44
  A 0.50 0.50 0.0 0 0 2470.41 471.94
  L 2470.48 497.99
  A 0.50 0.50 0.0 0 0 2470.98 498.49
  L 2636.01 498.49
  A 0.50 0.50 0.0 0 1 2636.51 498.99
  L 2636.48 546.66
  A 0.50 0.50 0.0 0 1 2635.98 547.16
  L 2470.92 547.16
  A 0.50 0.50 0.0 0 0 2470.42 547.66
  L 2470.43 573.47
  A 0.50 0.50 0.0 0 0 2470.93 573.97
  Z"
/>
<path fill="#ffffff" d="
  M 1256.51 547.56
  L 1256.54 573.57
  A 0.40 0.40 0.0 0 0 1256.94 573.97
  L 1422.22 573.95
  A 0.40 0.40 0.0 0 1 1422.62 574.35
  L 1422.54 627.65
  A 0.40 0.40 0.0 0 1 1422.14 628.05
  L 1173.89 628.05
  A 0.40 0.40 0.0 0 1 1173.49 627.65
  L 1173.49 417.87
  A 0.40 0.40 0.0 0 1 1173.89 417.47
  L 1422.22 417.47
  A 0.40 0.40 0.0 0 1 1422.62 417.87
  L 1422.57 471.03
  A 0.40 0.40 0.0 0 1 1422.17 471.43
  L 1256.90 471.47
  A 0.40 0.40 0.0 0 0 1256.50 471.87
  L 1256.54 498.08
  A 0.40 0.40 0.0 0 0 1256.94 498.48
  L 1422.23 498.49
  A 0.40 0.40 0.0 0 1 1422.63 498.89
  L 1422.57 546.76
  A 0.40 0.40 0.0 0 1 1422.17 547.16
  L 1256.91 547.16
  A 0.40 0.40 0.0 0 0 1256.51 547.56
  Z"
/>
<path fill="#ffffff" d="
  M 94.39 596.57
  Q 216.08 540.81 335.00 486.51
  C 337.65 485.30 340.51 483.89 342.85 486.65
  Q 445.70 608.18 548.60 729.97
  Q 550.78 732.55 550.22 736.04
  Q 550.14 736.57 549.71 736.25
  Q 546.54 733.89 543.88 731.34
  Q 449.92 641.11 335.48 530.83
  Q 331.36 526.86 325.80 528.75
  Q 196.08 572.81 71.18 614.90
  Q 67.72 616.06 63.79 616.65
  C 62.17 616.90 60.17 615.48 60.89 613.61
  Q 61.58 611.83 63.32 611.01
  Q 78.16 604.01 94.39 596.57
  Z"
/>
<path fill="#ffffff" d="
  M 398.87 793.00
  L 396.04 793.00
  Q 259.35 790.99 152.47 708.29
  A 0.51 0.51 0.0 0 1 152.33 707.65
  Q 165.39 682.64 177.77 658.37
  Q 179.73 654.53 184.16 653.22
  Q 247.71 634.48 310.15 616.09
  C 313.83 615.00 317.67 616.41 320.92 618.46
  Q 396.79 666.50 477.08 717.39
  C 479.22 718.75 481.04 720.88 482.01 723.24
  Q 493.17 750.34 503.97 777.50
  A 0.33 0.32 -18.7 0 1 503.75 777.93
  Q 452.46 792.43 398.87 793.00
  Z
  M 316.25 644.35
  Q 318.79 645.01 320.78 646.24
  Q 343.84 660.43 370.28 675.69
  Q 415.89 702.02 461.56 728.39
  Q 468.50 732.39 471.43 738.98
  Q 477.80 753.31 485.55 768.76
  Q 486.95 771.54 490.03 771.13
  Q 493.94 770.62 489.36 760.55
  A 40.55 0.65 65.7 0 1 487.02 755.39
  Q 483.44 747.45 479.85 738.56
  Q 475.06 726.70 463.11 719.69
  Q 396.93 680.84 323.64 636.67
  C 319.78 634.34 315.23 633.78 310.76 634.74
  Q 251.89 647.34 189.90 660.36
  Q 183.82 661.64 181.52 666.90
  Q 174.27 683.56 165.78 701.88
  C 164.97 703.63 166.06 705.89 166.77 707.50
  Q 166.98 707.97 167.47 707.84
  Q 170.68 707.04 171.89 704.74
  Q 179.45 690.45 186.47 674.92
  C 188.29 670.91 190.93 668.05 195.23 667.22
  Q 253.33 655.93 312.31 644.22
  Q 314.26 643.83 316.25 644.35
  Z
  M 365.81 770.10
  C 313.62 763.91 261.93 750.88 213.96 730.25
  Q 197.44 723.14 180.11 712.40
  Q 177.84 710.99 176.15 713.02
  Q 175.80 713.45 176.01 713.96
  Q 176.88 716.05 178.71 717.21
  Q 202.47 732.34 230.25 742.04
  Q 303.86 767.77 384.46 777.16
  Q 417.38 780.99 448.82 778.70
  Q 455.52 778.21 476.81 774.38
  Q 479.54 773.89 480.43 771.53
  Q 480.63 771.01 480.35 770.54
  Q 479.23 768.67 477.10 769.10
  Q 441.17 776.33 403.90 773.67
  Q 383.70 772.22 365.81 770.10
  Z"
/>
</svg>
