<?xml version="1.0" encoding="UTF-8"?>
<svg id="Layer_2" data-name="Layer 2" xmlns="http://www.w3.org/2000/svg" viewBox="0 0 6358.99 1912.27">
  <defs>
    <style>
      .cls-1 {
        fill: #fff;
        stroke-width: 0px;
      }
    </style>
  </defs>
  <g id="Layer_1-2" data-name="Layer 1">
    <g>
      <g>
        <path class="cls-1" d="M1053.83,989.05c3.66,7.84,6.43,13.99,9.38,20.06,81.51,168.12,156.32,339.06,216.72,516.03,22.69,66.49,43.25,133.61,57.77,202.44,1.18,5.62.83,11.56,1.17,17.04-9.84,1.97-12.31-4.34-15.57-8.43-22.75-28.59-46.06-56.79-67.62-86.26-93.59-127.9-174.27-263.89-249.89-402.95-30-55.16-58.29-111.25-87.37-166.91-2.84-5.43-5.72-10.84-9.09-17.22-7.48,3.4-13.66,6.06-19.7,8.99-167.54,81.29-337.89,155.93-514.19,216.36-66.43,22.77-133.55,43.31-202.29,58.04-6.35,1.36-13,1.33-19.13,1.91-3.26-9.54,3.22-12.1,7.29-15.33,29.96-23.78,59.5-48.15,90.35-70.73,110.76-81.06,227.74-152.41,347.76-218.7,72.94-40.28,147.17-78.23,220.82-117.23,5.51-2.92,11.01-5.84,18.66-9.89-56.46-122.72-109.79-246.15-158.3-371.6-48.5-125.41-91.44-252.67-130.63-383.12,10.93.91,13.61,7.97,17.24,13.09,35.37,49.81,71.41,99.18,105.51,149.86,108.82,161.7,206.8,329.89,297.91,502.13,3.43,6.49,7.04,12.89,11.32,20.7,7-3.06,13.16-5.62,19.22-8.4,206.58-94.96,417.01-180.13,633.94-248.71,27.75-8.77,55.37-17.91,83.12-26.67,5.6-1.77,11.5-2.56,17.26-3.8.66,1.25,1.31,2.5,1.97,3.75-5.3,4.67-10.3,9.74-15.94,13.96-99.35,74.23-202.95,142.13-308.42,207.24-110.81,68.4-224.07,132.51-339.12,193.47-6.01,3.18-11.96,6.46-20.13,10.88ZM928.6,942.47c-5.51,2.88-10.44,5.64-15.51,8.1-190.84,92.67-381.7,185.3-572.53,277.99-6.66,3.23-13.32,6.6-19.51,10.63-6.06,3.95-10.59,9.43-6.33,17.22,4.05,7.41,10.94,7.65,17.9,5.14,6.42-2.31,12.65-5.21,18.82-8.16,191.33-91.66,382.64-183.37,573.96-275.04,5.52-2.64,11.2-4.95,18.06-7.97,3.61,6.98,6.74,12.93,9.79,18.92,89.85,176.43,179.69,352.87,269.54,529.3,1.81,3.54,3.02,7.75,5.74,10.35,1.94,1.85,6.21,2.52,8.95,1.81,1.83-.47,3.94-4.33,3.86-6.6-.11-3.2-1.92-6.43-3.35-9.48-8.73-18.59-17.4-37.21-26.38-55.68-78.06-160.62-156.18-321.2-234.25-481.82-2.91-5.98-5.48-12.13-8.43-18.71,4.76-2.73,8.05-4.86,11.54-6.58,155.47-76.72,311.05-153.23,466.4-230.21,45.47-22.53,90.34-46.31,135.36-69.75,7.23-3.76,15.03-7.36,20.08-15.81-7.73-4.05-13.44-.96-18.95,1.2-11.15,4.36-22.3,8.78-33.14,13.85-192.16,89.88-384.26,179.85-576.38,269.82-6.06,2.84-12.06,5.81-19.01,9.16-15.17-30.92-29.21-60.84-44.36-90.18-64.93-125.73-130.22-251.27-195.31-376.92-22.31-43.07-44.3-86.29-66.71-129.31-2.92-5.6-4.24-13.32-13.23-14.57-3.94,8.43,1.62,14.62,4.57,20.82,30.63,64.41,61.51,128.7,92.41,192.98,64.01,133.18,128.08,266.33,192.11,399.5,1.45,3.01,2.65,6.14,4.3,10Z"/>
        <path class="cls-1" d="M277.05,283.05c29.03,19.18,56.9,37.62,84.8,56.01,10.48,6.91,20.69,14.33,31.63,20.42,11.62,6.46,16.43,15.93,18.62,28.7,13.2,77.05,27,154,40.59,230.98,4.07,23.04,7.6,46.19,12.42,69.07,2.82,13.39.35,23.92-8.37,34.75-91.66,113.78-182.85,227.92-274.49,341.71-4.72,5.86-11.67,11.52-18.68,13.66-47.43,14.46-95.14,27.96-142.78,41.71-1.51.44-3.19.3-6.35.55-26.05-150.73-16.9-298.93,27.81-444.82,45.96-149.98,124.57-280.54,234.8-392.74ZM436.28,707.5c-.67-5.4-.9-8.25-1.4-11.05-12.82-71.81-25.71-143.6-38.49-215.42-4.49-25.24-9.75-50.42-12.62-75.85-1.27-11.3-4.32-19.37-13.74-25.59-23.78-15.72-47.32-31.82-70.98-47.72-2.35-1.58-4.8-3.79-7.38-4.07-3.04-.33-7.92.13-9.04,2.02-1.65,2.78-1.72,7.49-.53,10.67,1.06,2.84,4.59,4.86,7.25,6.97,19.65,15.61,39.1,31.5,59.17,46.55,9.23,6.92,14.47,14.6,16.3,26.45,13.84,89.55,28.2,179.02,42.93,268.42,2.2,13.36-2.65,22.98-10.42,32.66-68.93,85.89-137.83,171.8-206.47,257.91-10.27,12.88-19.34,26.74-28.65,40.36-7.65,11.19-16.75,18.96-30.81,22.14-26.1,5.9-51.79,13.62-77.6,20.81-4.88,1.36-9.77,3.28-14.07,5.9-1.96,1.19-4.02,5.33-3.33,7.04,1.08,2.67,4.22,5.76,6.92,6.23,4.3.75,9.09.09,13.42-.99,31.51-7.89,63-15.87,94.37-24.28,4.7-1.26,9.67-4.07,12.96-7.61,12.8-13.74,25.38-27.74,37.3-42.25,17.74-21.61,34.8-43.77,52.24-65.63,58.34-73.13,116.77-146.2,174.98-219.44,3.72-4.68,5.79-10.66,7.67-14.23ZM23.98,995.45c0,16.05-.23,29.18.11,42.3.15,5.8-2.37,14.95,6.23,15.27,10.26.38,7.22-9.44,7.6-15.66,2.4-39.24,2.97-78.67,7.17-117.7,14.06-130.63,47.47-256.5,97.6-377.85,26.91-65.14,60.39-126.61,106.97-180.21,4.12-4.74,12.13-8.74,7.05-17.08-2.9-4.75-9.44-2.44-17.42,8.34-16.95,22.9-34.59,45.5-49.31,69.81-51.08,84.38-88.7,174.76-116.11,269.43-28.98,100.07-47.82,201.81-49.9,303.35Z"/>
        <path class="cls-1" d="M1908.48,870.25c12.95,147.06-7.11,288.72-59.36,425.75-54.23,142.22-138.24,264.28-251.11,367.7-4.22-2.7-8.1-4.85-11.62-7.49-33.34-24.99-66.5-50.22-99.99-75-7.89-5.84-11.87-12.42-13.05-22.45-8.48-71.98-17.6-143.88-26.53-215.81-3.3-26.62-6.26-53.29-10.15-79.82-1.98-13.49,1.41-23.78,10.66-34.11,97.11-108.46,193.85-217.25,290.49-326.13,6.42-7.23,13.36-11.89,22.95-13.24,47.42-6.67,94.8-13.55,142.21-20.3,1.06-.15,2.22.34,5.51.91ZM1505.34,1542.52c-1.79,12.91-.73,23.55,10.45,31.32,21.08,14.65,41.65,30.05,62.67,44.78,5.94,4.16,12.75,9.18,19.95,2.17,4.5-4.38,2.43-10.7-7.1-18.4-16.86-13.63-33.73-27.36-51.59-39.6-10.99-7.53-16.07-16.92-17.41-29.5-6.96-65.2-14.03-130.38-21.07-195.57-2.51-23.24-3.28-46.84-8.13-69.58-3.42-16.02.39-26.6,10.74-38.26,85.64-96.47,170.95-193.24,255.82-290.4,8.2-9.39,17.1-13.91,28.67-16.05,28.03-5.17,55.97-10.86,83.93-16.41,6.72-1.33,18.07.47,15.6-10.28-2.26-9.87-12.48-4.36-19.11-3.29-23.08,3.73-45.92,10.19-69.11,11.65-29.09,1.83-48.19,15.16-66.98,37.04-80.69,93.97-163.03,186.53-245.77,278.71-13.16,14.67-17.89,28.92-15.43,47.64,8.62,65.56,16.75,131.19,24.91,196.82,3.24,26.03,6.06,52.1,8.96,77.2ZM1887.05,919.78c-11.98,6.3-10.11,18.5-11.55,28.5-4.28,29.87-7.1,59.95-11.2,89.86-13.06,95.24-36.36,187.83-71.88,277.3-28.9,72.8-61.14,143.91-107.3,207.59-15.62,21.55-34.63,40.72-52.85,60.27-5.68,6.09-14.06,9.61-20.77,14.86-1.61,1.26-1.47,4.73-2.14,7.19,2.51.56,5.72,2.39,7.4,1.46,5.45-3.02,10.48-6.85,15.41-10.71,39.63-31.1,70.2-70.14,95.71-112.98,88.65-148.89,142.6-310.02,166.62-481.3,2.91-20.75,1.66-42.12,1.81-63.21.05-7.24-.62-14.96-9.26-18.83Z"/>
        <path class="cls-1" d="M366.29,1707.68c21.23-41.07,41.65-79.95,61.36-119.17,4.46-8.88,11.58-11.71,19.97-14.17,88.64-26.05,177.26-52.21,265.87-78.35,9.85-2.9,19.79-5.53,29.48-8.89,10.59-3.66,19.7-1.85,29.13,4.13,124.82,79.14,249.81,158.01,374.61,237.18,5.54,3.52,11.68,8.46,14.08,14.19,18.27,43.6,35.67,87.56,54.2,133.55-121.73,34.38-244.1,44.25-368.22,29.49-177.95-21.17-337.78-86.96-480.48-197.94ZM758.2,1552.81c3.99,1.66,9.93,3.34,15.06,6.38,23.58,13.94,46.73,28.61,70.41,42.37,87.82,51.01,175.67,101.98,263.84,152.4,13.93,7.97,24.4,17.18,30.66,32.47,8.84,21.61,19.72,42.4,29.84,63.49,1.45,3.02,3.02,6.35,5.48,8.41,1.82,1.52,5.93,2.47,7.66,1.42,2.46-1.49,4.84-4.93,5.11-7.74.3-3.06-1.62-6.47-2.97-9.55-8.22-18.82-17.48-37.24-24.62-56.46-8.51-22.92-22.62-38.7-44.24-51.33-111.85-65.31-222.86-132.06-333.93-198.68-10.71-6.43-20.88-7.44-32.59-4.93-96.47,20.64-192.97,41.15-289.53,61.37-10.36,2.17-17.37,6.35-21.72,16.55-11.42,26.76-23.75,53.12-35.69,79.65-1.17,2.59-3.2,5.4-2.92,7.9.44,3.94,2.5,7.69,3.88,11.52,3.33-1.58,7.23-2.55,9.84-4.93,2.38-2.17,3.46-5.82,4.97-8.89,10.86-22,22.66-43.61,32.12-66.2,5.12-12.23,12.8-17.12,24.94-19.45,70.01-13.4,139.92-27.28,209.87-41.01,24.06-4.73,48.1-9.52,74.53-14.76ZM423.26,1720.19c1.73,8.56,9.3,11.2,15.21,14.91,42.76,26.83,89.06,46.1,136.73,62,107.38,35.81,217.39,60.35,329.62,74.97,55.01,7.17,110.3,10.1,165.65,7.14,24.91-1.33,49.61-6.67,74.38-10.34,3.35-.5,6.94-1.29,9.71-3.05,1.96-1.24,4.02-4.6,3.65-6.56-.36-1.9-3.68-4.33-5.88-4.52-3.24-.28-6.6,1.45-9.96,1.93-21.42,3.08-42.77,7.09-64.3,8.87-60.54,5-120.84.37-181.02-6.3-105.79-11.72-209.23-33.99-309.58-69.72-51.61-18.38-102.28-38.99-148.91-68.33-4.54-2.86-9.3-7.38-15.3-1Z"/>
        <path class="cls-1" d="M974.95,0c145.28,3.29,280.25,36.56,407.75,100.03,140.55,69.97,256.27,169.31,349.22,296.33-2.33,3.27-4,6.22-6.22,8.66-26.53,29.11-53.34,57.96-79.57,87.33-6.65,7.44-13.67,10.6-23.63,10.58-90.17-.14-180.35.13-270.52.28-6.85.01-13.7-.1-20.55.05-35.32.78-29.19,2.09-50.86-22.47-93.24-105.75-186.22-211.73-279.59-317.37-8.69-9.83-14.32-20.01-15.43-33.18-3.27-38.64-7.06-77.24-10.55-115.86-.35-3.83-.05-7.72-.05-14.38ZM1472.44,471.46c0,1.24,0,2.49,0,3.73,35.96,0,71.93-.07,107.89.04,13.12.04,26.3,1.34,39.34.46,6.25-.42,14.05-2.96,18.05-7.35,15.35-16.87,29.57-34.79,43.91-52.55,3.46-4.29,8.07-9.99,2.42-15.07-6.47-5.81-11.35.26-15.93,4.45-2.1,1.92-4.09,3.99-5.98,6.12-9.86,11.1-20.09,21.9-29.35,33.48-6.3,7.88-13.4,10.79-23.49,10.69-84.49-.9-168.99-1.3-253.48-1.89-6.85-.05-13.7-.58-20.54-.46-7.44.13-12.77-3.03-17.78-8.43-33.76-36.42-67.9-72.5-101.67-108.91-60.57-65.3-120.89-130.84-181.57-196.04-7.07-7.6-9.76-15.19-9.96-25.78-.5-26.19-2.95-52.34-4.94-78.48-.59-7.79-.45-17.95-11.7-17.4-11.1.54-10.29,10.95-10.41,18.54-.48,28.51-.08,57.03-.43,85.54-.15,11.7,4.53,20.43,12.53,28.73,46.75,48.51,93.16,97.36,139.66,146.11,52.01,54.53,104.05,109.03,155.93,163.68,6.6,6.95,13.38,11.14,23.68,11.04,47.94-.5,95.9-.22,143.85-.22ZM1677.96,380.38c2.05-1.45,4.1-2.91,6.16-4.36-4.58-8.15-8.07-17.21-13.95-24.28-16.74-20.14-33.07-40.92-52.01-58.87-104.41-98.95-225.1-172.15-359.31-223.22-54.48-20.73-110.56-35.72-168.58-42.71-6.2-.75-12.52-1.14-18.72-.74-1.88.12-4.26,3.19-5.04,5.39-.41,1.15,1.81,4.34,3.43,4.9,4.26,1.47,8.83,2.1,13.3,2.9,16.26,2.91,32.66,5.14,48.76,8.71,87.93,19.54,170.69,53.14,250.4,94.34,109.89,56.8,210.26,126.06,286.77,225.48,3.1,4.02,5.87,8.29,8.79,12.45Z"/>
        <path class="cls-1" d="M1815.96,590.79c-4.16,3.72-8.18,7.63-12.52,11.14-160.78,129.87-321.6,259.7-482.39,389.56-19.54,15.78-38.63,32.16-58.56,47.42-9.01,6.9-10.95,13.88-8.66,24.9,22.58,108.99,44.57,218.11,66.8,327.18,20.98,102.92,42.08,205.81,62.98,308.74,1.12,5.53,1.46,11.35,1.19,16.98-.1,2.14-2.69,5.5-4.61,5.86-2.09.39-6-1.45-6.87-3.36-3.09-6.7-5.46-13.77-7.68-20.84-62.15-197.67-124.26-395.35-186.36-593.04-7.87-25.05-15.7-50.11-23.4-75.22-5.09-16.58-5.02-16.7,9.32-26.03,59.82-38.92,119.71-77.72,179.51-116.67,145.91-95.03,291.78-190.12,437.68-285.16,7.65-4.98,15.31-9.99,23.27-14.44,2.37-1.32,5.78-.77,8.72-1.07.53,1.35,1.06,2.69,1.58,4.04Z"/>
        <path class="cls-1" d="M1326.24,1776.82c-7.11-6.04-11.9-9.69-16.22-13.84-116.46-111.96-232.89-223.97-349.29-335.99-50.18-48.29-100.47-96.47-150.32-145.11-8.45-8.25-15.81-9.98-27.24-6.1-203.07,69.06-406.29,137.68-609.51,206.3-6.98,2.36-14.23,4.14-21.5,5.34-1.93.32-5.63-2.14-6.26-4.06-.64-1.97.77-6.01,2.54-7.1,6.29-3.87,13.03-7.07,19.76-10.16,152.47-69.97,304.93-139.95,457.45-209.8,60.18-27.56,120.46-54.89,180.75-82.21,14.27-6.47,14.49-6.37,24.38,5.32,162.23,191.79,324.44,383.59,486.54,575.48,4.11,4.87,10.51,8.96,8.91,21.94Z"/>
        <path class="cls-1" d="M515.89,154.79c9.9,5.33,9.35,13.11,10.97,19.16,15.1,56.21,29.72,112.54,44.53,168.82,48.81,185.4,97.64,370.79,146.45,556.18,4.76,18.07,4.8,18.23-11.78,27.95-202.32,118.68-404.67,237.32-607.04,355.93-4.9,2.87-9.92,5.72-15.23,7.61-1.85.66-5.29-1.09-6.95-2.77-.93-.95-.5-4.76.68-6,4.28-4.52,8.81-8.95,13.81-12.63,170.65-125.4,341.15-251,512.4-375.57,17.32-12.6,22.17-24.27,18.7-45.1-18.84-113.14-36.23-226.52-53.96-339.85-17.64-112.76-35.1-225.55-52.52-338.34-.66-4.28-.08-8.74-.08-15.38Z"/>
        <path class="cls-1" d="M1027.26,776.59c-148.76-216.81-296.78-432.55-446.26-650.4,11.33-1.3,13.67,5.68,17.17,9.74,41.75,48.43,83.43,96.92,124.79,145.69,107.8,127.13,215.56,254.3,322.92,381.8,9.27,11.01,17.54,14.18,32.09,10.78,147.68-34.46,295.58-68,443.41-101.85,61.68-14.12,123.29-28.51,185.03-42.37,7.55-1.69,16.17-5.99,23.91,1.71-2.65,8.7-10.61,8.65-16.51,10.71-48.46,16.86-97.04,33.36-145.6,49.93-174.29,59.46-348.58,118.89-522.88,178.33-5.36,1.83-10.77,3.54-18.08,5.93Z"/>
      </g>
      <g>
        <g>
          <path class="cls-1" d="M2367.21,398.67v508.1h-198.1v-508.1h198.1Z"/>
          <path class="cls-1" d="M2967.94,398.67h198.48v508.1h-223.05l-272.95-310.38v310.38h-198.1v-508.1h272.58l223.05,269.17v-269.17Z"/>
          <path class="cls-1" d="M3582.66,595.26c141.77,7.18,341,17.01,340.62,144.42,0,145.17-166.34,179.57-344.78,179.57-178.06-.38-325.88-21.93-344.78-179.57h207.55c22.68,39.32,75.23,49.52,137.23,49.52s137.23-10.21,137.23-49.52c0-22.3-61.62-25.71-141.39-29.49-141.77-7.18-341-17.01-340.62-144.04,0-145.17,166.34-179.95,344.78-179.95,178.06,1.13,325.88,21.17,344.78,179.95h-207.55c-22.68-40.07-75.23-49.52-137.23-49.52s-137.23,9.07-137.23,49.52c0,22.3,61.62,25.33,141.39,29.11Z"/>
          <path class="cls-1" d="M4465.8,399.43c104.72-1.13,193.56,86.95,192.05,192.05,1.51,104.72-87.33,193.56-192.05,192.05h-291.48v124h-198.1v-508.1h489.58ZM4416.28,634.58c11.72,0,21.93-4.16,30.24-12.48,8.7-8.7,12.85-18.9,12.85-30.62s-4.16-22.3-12.85-30.62c-8.32-8.7-18.52-12.85-30.24-12.85h-241.95v86.57h241.95Z"/>
          <path class="cls-1" d="M4909.65,398.67v508.1h-198.1v-508.1h198.1Z"/>
          <path class="cls-1" d="M5504.33,399.05c104.72-1.13,193.56,86.95,192.05,192.05,0,38.18-10.21,72.96-30.62,103.96-20.04,30.62-46.88,54.06-80.15,69.56l110.77,142.53h-210.95l-95.65-124h-176.93v124h-198.1v-508.1h489.58ZM5212.85,547.62v86.57h241.58c12.1,0,22.3-4.16,30.62-12.48,8.7-8.7,12.85-18.9,12.85-30.62,0-24.2-19.28-43.48-43.48-43.48h-241.58Z"/>
          <path class="cls-1" d="M5757.64,399.43h594.67v130.05h-396.58v65.02h396.58v117.57h-396.58v65.02h396.58v130.43h-594.67v-508.1Z"/>
        </g>
        <g>
          <path class="cls-1" d="M2361.7,1006.27v347.05h400.69v161.05h-600.84v-508.1h200.15Z"/>
          <path class="cls-1" d="M2829.99,1007.03h600.84v130.05h-400.69v65.02h400.69v117.57h-400.69v65.02h400.69v130.43h-600.84v-508.1Z"/>
          <path class="cls-1" d="M3721.5,1007.03h237.97l275.4,508.1h-225.36l-40.49-86.95h-257.07l-40.49,86.95h-225.36l275.4-508.1ZM3770.01,1304.18h140.95l-70.28-150.09-70.67,150.09Z"/>
          <path class="cls-1" d="M4551.14,1235.37h348.74v291.48h-100.08l-9.93-79.01c-59.59,58.22-150.12,79.01-237.21,79.01-193.28-.76-351.42-55.95-350.65-248v-37.05c-.76-192.43,157.37-247.62,350.65-248,178,0,324.68,48.01,347.21,204.53h-212.76c-12.6-17.01-30.94-28.35-54.62-34.4-23.68-6.05-50.42-9.07-79.83-9.07-82.12,1.13-151.64,16.26-150.5,99.05v12.48c-1.15,83.55,68.37,97.92,150.5,99.05,79.07,0,129.49-4.54,159.67-43.1h-161.19v-86.95Z"/>
          <path class="cls-1" d="M5467.48,1006.27h200.54v272.95c.76,192.05-158.14,247.25-350.65,247.62-192.51-.38-351.42-55.57-350.65-247.62v-272.95h200.15v260.48c-.76,83.55,68.37,97.92,150.5,99.05,81.74-1.13,151.26-15.5,150.12-99.05v-260.48Z"/>
          <path class="cls-1" d="M5758.15,1007.03h600.84v130.05h-400.69v65.02h400.69v117.57h-400.69v65.02h400.69v130.43h-600.84v-508.1Z"/>
        </g>
      </g>
    </g>
  </g>
</svg>