<?xml version="1.0" encoding="UTF-8"?>
<svg id="Layer_2" data-name="Layer 2" xmlns="http://www.w3.org/2000/svg" viewBox="0 0 2536.87 2536.83">
  <defs>
    <style>
      .cls-1 {
        fill: #fff;
        stroke-width: 0px;
      }
    </style>
  </defs>
  <g id="Layer_1-2" data-name="Layer 1">
    <g>
      <path class="cls-1" d="M1398.02,1312.09c4.85,10.4,8.54,18.56,12.44,26.61,108.13,223.03,207.38,449.79,287.51,684.57,30.1,88.2,57.38,177.25,76.63,268.55,1.57,7.45,1.1,15.34,1.55,22.6-13.05,2.62-16.34-5.76-20.66-11.19-30.19-37.92-61.1-75.34-89.71-114.44-124.16-169.68-231.19-350.09-331.51-534.56-39.8-73.18-77.33-147.59-115.91-221.43-3.77-7.21-7.59-14.39-12.05-22.84-9.92,4.51-18.12,8.03-26.13,11.92-222.26,107.84-448.24,206.86-682.13,287.03-88.13,30.21-177.16,57.45-268.36,77-8.42,1.81-17.24,1.77-25.38,2.54-4.33-12.66,4.28-16.06,9.67-20.33,39.74-31.55,78.93-63.88,119.85-93.83,146.93-107.54,302.12-202.19,461.34-290.13,96.76-53.44,195.24-103.78,292.94-155.51,7.3-3.87,14.6-7.74,24.75-13.12-74.9-162.8-145.65-326.54-210.01-492.97-64.34-166.37-121.31-335.19-173.29-508.25,14.5,1.2,18.05,10.58,22.87,17.37,46.92,66.08,94.74,131.58,139.97,198.8,144.36,214.52,274.35,437.63,395.21,666.13,4.55,8.61,9.34,17.1,15.02,27.47,9.29-4.05,17.46-7.45,25.5-11.15,274.06-125.98,553.21-238.96,840.99-329.94,36.81-11.64,73.46-23.76,110.27-35.38,7.43-2.34,15.26-3.4,22.9-5.04.87,1.66,1.74,3.31,2.62,4.97-7.03,6.2-13.67,12.92-21.15,18.51-131.79,98.47-269.24,188.55-409.15,274.93-147,90.74-297.25,175.79-449.88,256.66-7.97,4.22-15.87,8.57-26.71,14.43ZM1231.89,1250.29c-7.31,3.83-13.85,7.48-20.58,10.75-253.17,122.94-506.37,245.82-759.53,368.79-8.83,4.29-17.67,8.75-25.88,14.11-8.04,5.24-14.05,12.51-8.4,22.84,5.38,9.84,14.52,10.14,23.75,6.82,8.52-3.07,16.79-6.91,24.97-10.83,253.82-121.6,507.61-243.26,761.42-364.87,7.32-3.51,14.85-6.56,23.96-10.57,4.79,9.25,8.94,17.15,12.99,25.11,119.2,234.06,238.38,468.12,357.57,702.17,2.4,4.7,4.01,10.28,7.62,13.73,2.57,2.45,8.24,3.34,11.88,2.4,2.42-.63,5.22-5.74,5.12-8.76-.14-4.24-2.54-8.53-4.44-12.58-11.58-24.66-23.08-49.37-34.99-73.87-103.55-213.08-207.19-426.11-310.76-639.18-3.86-7.94-7.27-16.1-11.19-24.83,6.32-3.62,10.68-6.44,15.31-8.73,206.25-101.78,412.64-203.27,618.73-305.39,60.33-29.89,119.84-61.43,179.57-92.53,9.59-4.99,19.93-9.77,26.64-20.97-10.25-5.37-17.83-1.27-25.14,1.59-14.79,5.79-29.58,11.65-43.96,18.37-254.92,119.23-509.77,238.6-764.63,357.95-8.04,3.76-16,7.7-25.22,12.15-20.13-41.02-38.75-80.71-58.85-119.64-86.14-166.79-172.76-333.34-259.1-500.02-29.59-57.13-58.77-114.48-88.5-171.54-3.87-7.42-5.63-17.67-17.55-19.33-5.23,11.18,2.14,19.39,6.06,27.62,40.64,85.44,81.6,170.73,122.59,256.01,84.92,176.68,169.91,353.32,254.85,529.98,1.92,4,3.51,8.15,5.7,13.26Z"/>
      <path class="cls-1" d="M367.53,375.5c38.51,25.44,75.49,49.9,112.5,74.31,13.9,9.17,27.45,19.01,41.96,27.09,15.41,8.57,21.8,21.13,24.7,38.07,17.51,102.21,35.81,204.29,53.85,306.42,5.4,30.56,10.08,61.28,16.48,91.63,3.74,17.76.47,31.74-11.1,46.1-121.59,150.94-242.57,302.37-364.14,453.32-6.26,7.77-15.48,15.28-24.78,18.12-62.91,19.18-126.22,37.09-189.42,55.33-2.01.58-4.24.39-8.43.73-34.56-199.96-22.42-396.57,36.89-590.11,60.97-198.97,165.26-372.17,311.49-521.01ZM578.77,938.58c-.9-7.17-1.19-10.95-1.86-14.66-17.01-95.26-34.1-190.5-51.06-285.77-5.96-33.49-12.93-66.88-16.74-100.62-1.69-14.99-5.73-25.7-18.22-33.95-31.55-20.85-62.77-42.21-94.16-63.31-3.12-2.1-6.37-5.02-9.79-5.4-4.03-.44-10.51.18-11.99,2.68-2.19,3.69-2.28,9.94-.71,14.15,1.4,3.76,6.09,6.45,9.62,9.25,26.07,20.7,51.87,41.78,78.5,61.75,12.24,9.18,19.2,19.37,21.63,35.09,18.36,118.79,37.41,237.48,56.95,356.09,2.92,17.72-3.52,30.48-13.82,43.32-91.44,113.94-182.84,227.91-273.91,342.15-13.62,17.09-25.66,35.47-38.01,53.54-10.14,14.84-22.22,25.16-40.87,29.37-34.63,7.83-68.71,18.07-102.94,27.61-6.48,1.8-12.96,4.36-18.66,7.83-2.6,1.58-5.33,7.07-4.42,9.34,1.43,3.54,5.6,7.64,9.18,8.27,5.7,1,12.06.12,17.81-1.31,41.8-10.46,83.57-21.05,125.19-32.2,6.24-1.67,12.82-5.4,17.19-10.09,16.98-18.23,33.67-36.79,49.48-56.05,23.54-28.66,46.17-58.07,69.3-87.06,77.4-97.02,154.91-193.95,232.13-291.12,4.93-6.21,7.68-14.15,10.18-18.88ZM31.81,1320.58c0,21.29-.31,38.71.14,56.11.2,7.69-3.15,19.84,8.27,20.26,13.61.5,9.58-12.53,10.08-20.78,3.19-52.05,3.94-104.36,9.52-156.15,18.66-173.3,62.97-340.28,129.48-501.26,35.71-86.42,80.11-167.96,141.91-239.06,5.46-6.28,16.09-11.6,9.35-22.65-3.84-6.3-12.53-3.23-23.11,11.06-22.49,30.38-45.88,60.35-65.41,92.61-67.76,111.94-117.67,231.84-154.04,357.42-38.44,132.76-63.43,267.72-66.2,402.43Z"/>
      <path class="cls-1" d="M2531.81,1154.49c17.18,195.09-9.44,383.01-78.75,564.8-71.94,188.67-183.39,350.6-333.13,487.8-5.59-3.58-10.74-6.44-15.41-9.94-44.23-33.15-88.21-66.63-132.65-99.49-10.47-7.74-15.74-16.48-17.31-29.79-11.25-95.49-23.34-190.88-35.19-286.29-4.38-35.31-8.3-70.7-13.47-105.89-2.63-17.9,1.87-31.54,14.15-45.25,128.83-143.88,257.17-288.2,385.36-432.65,8.52-9.6,17.72-15.77,30.44-17.56,62.9-8.85,125.76-17.98,188.65-26.93,1.41-.2,2.95.45,7.31,1.2ZM1997,2046.32c-2.38,17.12-.97,31.24,13.86,41.54,27.97,19.43,55.25,39.86,83.14,59.41,7.87,5.52,16.92,12.18,26.46,2.88,5.97-5.81,3.23-14.2-9.41-24.41-22.37-18.08-44.74-36.3-68.43-52.54-14.58-9.99-21.31-22.45-23.1-39.14-9.23-86.49-18.62-172.96-27.96-259.44-3.33-30.83-4.35-62.14-10.79-92.31-4.54-21.25.52-35.29,14.24-50.75,113.61-127.98,226.79-256.35,339.37-385.25,10.88-12.46,22.68-18.46,38.03-21.29,37.19-6.86,74.25-14.4,111.34-21.77,8.92-1.77,23.97.62,20.7-13.63-3-13.09-16.55-5.79-25.35-4.37-30.62,4.95-60.92,13.52-91.68,15.46-38.59,2.43-63.93,20.11-88.86,49.14-107.04,124.66-216.28,247.45-326.04,369.75-17.46,19.46-23.73,38.37-20.47,63.2,11.44,86.98,22.22,174.04,33.05,261.1,4.29,34.53,8.04,69.12,11.88,102.41ZM2503.39,1220.19c-15.89,8.36-13.41,24.54-15.32,37.81-5.68,39.63-9.42,79.54-14.85,119.2-17.32,126.35-48.24,249.17-95.36,367.87-38.34,96.57-81.11,190.91-142.34,275.39-20.72,28.59-45.94,54.02-70.11,79.96-7.54,8.09-18.65,12.75-27.55,19.71-2.13,1.67-1.96,6.28-2.84,9.54,3.33.75,7.59,3.17,9.82,1.94,7.22-4,13.91-9.09,20.44-14.21,52.58-41.25,93.13-93.05,126.97-149.88,117.61-197.52,189.17-411.28,221.04-638.5,3.86-27.53,2.21-55.88,2.4-83.85.07-9.61-.83-19.85-12.29-24.98Z"/>
      <path class="cls-1" d="M485.93,2265.43c28.17-54.49,55.25-106.06,81.4-158.09,5.92-11.77,15.36-15.53,26.49-18.8,117.6-34.56,235.15-69.27,352.71-103.95,13.06-3.85,26.26-7.34,39.11-11.79,14.05-4.86,26.13-2.46,38.64,5.47,165.59,104.98,331.4,209.61,496.96,314.65,7.35,4.66,15.49,11.22,18.68,18.82,24.23,57.84,47.32,116.15,71.91,177.16-161.48,45.61-323.82,58.7-488.49,39.12-236.07-28.08-448.1-115.37-637.41-262.6ZM1005.83,2059.97c5.3,2.2,13.17,4.43,19.98,8.46,31.28,18.49,61.99,37.96,93.4,56.21,116.51,67.67,233.05,135.29,350.01,202.18,18.48,10.57,32.37,22.79,40.67,43.08,11.73,28.67,26.16,56.25,39.58,84.22,1.92,4.01,4.01,8.42,7.27,11.16,2.41,2.02,7.87,3.28,10.16,1.89,3.27-1.98,6.42-6.54,6.78-10.27.4-4.06-2.15-8.58-3.93-12.66-10.91-24.96-23.19-49.4-32.66-74.9-11.29-30.4-30.01-51.34-58.69-68.09-148.38-86.64-295.65-175.19-443-263.58-14.21-8.52-27.7-9.87-43.24-6.54-127.98,27.38-255.99,54.59-384.09,81.41-13.74,2.88-23.04,8.43-28.81,21.96-15.15,35.49-31.51,70.47-47.35,105.67-1.55,3.44-4.25,7.17-3.87,10.48.59,5.22,3.32,10.2,5.15,15.28,4.42-2.1,9.59-3.39,13.05-6.54,3.16-2.88,4.59-7.72,6.6-11.79,14.4-29.19,30.07-57.85,42.61-87.82,6.79-16.23,16.98-22.72,33.09-25.8,92.87-17.78,185.62-36.18,278.41-54.41,31.92-6.27,63.81-12.63,98.87-19.57ZM561.5,2282.03c2.3,11.36,12.33,14.85,20.18,19.78,56.73,35.59,118.15,61.16,181.39,82.25,142.45,47.51,288.4,80.06,437.28,99.46,72.97,9.51,146.32,13.4,219.75,9.47,33.05-1.77,65.81-8.85,98.68-13.72,4.44-.66,9.2-1.71,12.88-4.04,2.59-1.64,5.34-6.1,4.84-8.7-.48-2.52-4.89-5.74-7.8-5.99-4.3-.37-8.75,1.92-13.22,2.56-28.42,4.09-56.74,9.4-85.3,11.76-80.31,6.63-160.3.49-240.15-8.36-140.34-15.55-277.57-45.09-410.7-92.49-68.47-24.38-135.68-51.72-197.55-90.64-6.03-3.79-12.34-9.79-20.3-1.33Z"/>
      <path class="cls-1" d="M1293.37,0c192.72,4.36,371.78,48.5,540.93,132.7,186.45,92.82,339.97,224.61,463.27,393.12-3.09,4.34-5.3,8.25-8.25,11.49-35.19,38.62-70.76,76.89-105.56,115.86-8.82,9.87-18.13,14.06-31.35,14.04-119.62-.18-239.25.18-358.88.37-9.09.02-18.18-.13-27.26.06-46.86,1.03-38.73,2.78-67.47-29.82-123.7-140.29-247.04-280.89-370.9-421.03-11.53-13.04-18.99-26.54-20.47-44.02-4.33-51.26-9.36-102.46-14-153.7-.46-5.08-.06-10.24-.06-19.07ZM1953.36,625.44c0,1.65,0,3.3,0,4.95,47.71,0,95.42-.1,143.13.05,17.41.05,34.89,1.78,52.19.61,8.3-.56,18.64-3.92,23.95-9.75,20.36-22.38,39.23-46.15,58.25-69.72,4.59-5.69,10.71-13.25,3.21-19.99-8.58-7.71-15.06.35-21.13,5.9-2.79,2.55-5.43,5.29-7.94,8.12-13.08,14.72-26.65,29.05-38.94,44.41-8.35,10.45-17.78,14.32-31.16,14.18-112.09-1.19-224.18-1.73-336.27-2.51-9.09-.06-18.18-.77-27.25-.61-9.87.17-16.94-4.01-23.59-11.19-44.79-48.32-90.07-96.18-134.88-144.48-80.36-86.63-160.37-173.58-240.88-260.07-9.38-10.08-12.95-20.15-13.22-34.2-.67-34.74-3.91-69.44-6.56-104.12-.79-10.33-.6-23.81-15.53-23.09-14.73.72-13.64,14.53-13.81,24.59-.63,37.82-.11,75.66-.58,113.48-.19,15.52,6.01,27.1,16.62,38.11,62.02,64.35,123.58,129.16,185.27,193.83,69,72.34,138.03,144.64,206.86,217.14,8.76,9.23,17.76,14.78,31.42,14.64,63.6-.66,127.22-.29,190.83-.29ZM2226,504.62c2.72-1.93,5.44-3.85,8.17-5.78-6.08-10.81-10.7-22.83-18.5-32.22-22.21-26.71-43.87-54.29-69-78.1-138.52-131.27-298.62-228.38-476.66-296.13-72.27-27.5-146.67-47.38-223.64-56.66-8.22-.99-16.61-1.51-24.83-.98-2.5.16-5.65,4.23-6.69,7.15-.54,1.53,2.4,5.76,4.55,6.5,5.65,1.95,11.71,2.79,17.64,3.85,21.57,3.86,43.33,6.81,64.69,11.56,116.64,25.92,226.44,70.5,332.18,125.15,145.79,75.35,278.93,167.24,380.44,299.13,4.11,5.34,7.78,11,11.66,16.51Z"/>
      <path class="cls-1" d="M2409.07,783.75c-5.52,4.94-10.85,10.13-16.6,14.78-213.29,172.29-426.64,344.52-639.94,516.79-25.93,20.94-51.24,42.66-77.69,62.91-11.96,9.16-14.52,18.42-11.49,33.03,29.96,144.59,59.12,289.35,88.61,434.04,27.83,136.53,55.82,273.03,83.56,409.57,1.49,7.34,1.94,15.05,1.58,22.53-.14,2.84-3.57,7.3-6.12,7.78-2.77.52-7.95-1.93-9.12-4.45-4.1-8.89-7.24-18.27-10.19-27.64-82.45-262.23-164.85-524.48-247.22-786.73-10.44-33.23-20.83-66.48-31.04-99.78-6.75-22-6.66-22.16,12.36-34.53,79.36-51.63,158.81-103.11,238.13-154.77,193.56-126.07,387.08-252.22,580.63-378.3,10.15-6.61,20.31-13.26,30.87-19.16,3.14-1.75,7.67-1.02,11.57-1.42.7,1.79,1.4,3.57,2.1,5.36Z"/>
      <path class="cls-1" d="M1759.41,2357.15c-9.43-8.02-15.79-12.86-21.52-18.36-154.5-148.53-308.95-297.12-463.38-445.73-66.57-64.06-133.29-127.98-199.41-192.5-11.21-10.94-20.98-13.24-36.13-8.09-269.4,91.61-538.99,182.65-808.58,273.68-9.27,3.13-18.88,5.49-28.52,7.08-2.57.42-7.47-2.84-8.31-5.39-.85-2.61,1.02-7.98,3.37-9.42,8.35-5.13,17.28-9.37,26.21-13.47,202.26-92.83,404.53-185.65,606.86-278.33,79.83-36.56,159.81-72.82,239.78-109.07,18.93-8.58,19.22-8.45,32.34,7.06,215.22,254.43,430.41,508.87,645.46,763.44,5.45,6.46,13.94,11.88,11.83,29.11Z"/>
      <path class="cls-1" d="M684.38,205.35c13.13,7.06,12.4,17.39,14.56,25.42,20.03,74.56,39.42,149.3,59.08,223.96,64.75,245.95,129.53,491.89,194.29,737.84,6.31,23.97,6.37,24.18-15.62,37.08-268.4,157.44-536.84,314.83-805.3,472.18-6.5,3.81-13.16,7.59-20.21,10.09-2.46.87-7.02-1.44-9.22-3.68-1.24-1.26-.66-6.31.9-7.96,5.68-6,11.68-11.88,18.33-16.76,226.38-166.35,452.57-332.98,679.76-498.23,22.97-16.71,29.41-32.19,24.8-59.83-25-150.09-48.07-300.51-71.58-450.85-23.4-149.59-46.56-299.22-69.67-448.85-.88-5.67-.11-11.6-.11-20.41Z"/>
      <path class="cls-1" d="M1362.78,1030.23c-197.35-287.63-393.71-573.82-592.01-862.83,15.03-1.72,18.14,7.54,22.78,12.92,55.39,64.25,110.68,128.58,165.54,193.28,143.01,168.65,285.96,337.36,428.4,506.5,12.3,14.6,23.27,18.81,42.57,14.3,195.92-45.71,392.12-90.21,588.23-135.12,81.82-18.74,163.56-37.82,245.46-56.2,10.02-2.25,21.45-7.95,31.73,2.27-3.51,11.54-14.07,11.48-21.91,14.21-64.29,22.36-128.73,44.26-193.15,66.24-231.21,78.87-462.44,157.73-693.66,236.57-7.11,2.43-14.28,4.69-23.98,7.87Z"/>
    </g>
  </g>
</svg>